<?xml version="1.0" encoding="utf-8"?>
<!-- Generator: Adobe Illustrator 19.0.0, SVG Export Plug-In . SVG Version: 6.00 Build 0)  -->
<svg version="1.1" id="Layer_1" xmlns="http://www.w3.org/2000/svg" xmlns:xlink="http://www.w3.org/1999/xlink" x="0px" y="0px"
	 viewBox="-12 318.5 424 133" enable-background="new -12 318.5 424 133" xml:space="preserve">
<g>
	<g id="XMLID_5_">
		<g id="XMLID_643_">
			<g>
				<path id="XMLID_131_" fill="#FFFFFF" d="M130,404.2h3.7l21.8,27.8v-27.8h3.8v34.7h-3.1l-22.4-28.4v28.4H130V404.2z"/>
				<path id="XMLID_129_" fill="#FFFFFF" d="M170.7,404.2h25.1v3.6h-21.2v11.8h18.9v3.6h-18.9v12.1H196v3.6h-25.3V404.2z"/>
				<path id="XMLID_127_" fill="#FFFFFF" d="M214.7,407.8H203v-3.6h27.2v3.6h-11.6v31.1h-4v-31.1H214.7z"/>
				<path id="XMLID_125_" fill="#FFFFFF" d="M236.5,404.2h4.3l9.9,28.9l9.5-29h3.2l9.5,29l9.9-28.9h4.1l-12.4,34.9h-3.3l-9.5-28.1
					l-9.6,28.1h-3.3L236.5,404.2z"/>
				<path id="XMLID_122_" fill="#FFFFFF" d="M292.3,421.6L292.3,421.6c0-9.7,7.2-18,17.7-18c10.6,0,17.6,8.3,17.6,17.8v0.1
					c0,9.6-7.2,17.9-17.7,17.9C299.4,439.4,292.3,431.2,292.3,421.6z M323.6,421.6L323.6,421.6c0-8-5.7-14.4-13.7-14.4
					c-7.9,0-13.6,6.3-13.6,14.2v0.1c0,7.9,5.7,14.3,13.7,14.3C318,435.8,323.6,429.5,323.6,421.6z"/>
				<path id="XMLID_119_" fill="#FFFFFF" d="M337.5,404.2h14.9c4.3,0,7.7,1.3,9.9,3.5c1.7,1.7,2.7,4.1,2.7,6.8v0.1
					c0,5.7-4,9.1-9.4,10.1l10.7,14.2h-4.8l-10.1-13.5h-9.9v13.5h-3.9v-34.7H337.5z M352.1,421.9c5.2,0,8.9-2.7,8.9-7.1v-0.1
					c0-4.3-3.3-6.8-8.9-6.8h-10.7V422h10.7V421.9z"/>
				<path id="XMLID_117_" fill="#FFFFFF" d="M374.9,404.2h3.9v20.7l19.9-20.7h5.1l-14.9,15.2l15.5,19.5h-4.9l-13.3-16.8l-7.4,7.5
					v9.3h-3.9L374.9,404.2L374.9,404.2z"/>
			</g>
		</g>
		<g id="XMLID_99_">
			<g id="XMLID_499_">
				<path id="XMLID_641_" fill="#FFFFFF" d="M126.6,385.7l7.8-9.4c5.4,4.5,11.1,7.3,18,7.3c5.4,0,8.7-2.1,8.7-5.7v-0.2
					c0-3.4-2.1-5.1-12.1-7.6c-12.1-3.1-19.9-6.4-19.9-18.4v-0.2c0-10.9,8.8-18.1,21-18.1c8.8,0,16.2,2.8,22.3,7.6l-6.9,10
					c-5.3-3.7-10.6-5.9-15.6-5.9c-5.1,0-7.7,2.3-7.7,5.2v0.2c0,4,2.6,5.2,13,7.9c12.2,3.2,19.1,7.6,19.1,18v0.2
					c0,11.9-9.1,18.6-22.1,18.6C143,395.3,133.8,392.2,126.6,385.7z"/>
				<path id="XMLID_639_" fill="#FFFFFF" d="M198.4,346.5h-18.3v-12.2H230v12.2h-18.3v48h-13.2v-48H198.4z"/>
				<path id="XMLID_503_" fill="#FFFFFF" d="M300.2,334.3h27.5c7.6,0,13.6,2.1,17.5,6.1c3.4,3.4,5.2,8.1,5.2,13.7v0.2
					c0,9.7-5.2,15.8-12.9,18.6l14.7,21.5h-15.5l-12.9-19.2h-10.4v19.3h-13.2L300.2,334.3L300.2,334.3z M326.9,363.5
					c6.4,0,10.1-3.4,10.1-8.5v-0.2c0-5.7-4-8.6-10.4-8.6h-13.1v17.3H326.9z"/>
				<path id="XMLID_501_" fill="#FFFFFF" d="M376.4,346.5h-18.3v-12.2h49.8v12.2h-18.3v48h-13.2V346.5z"/>
			</g>
			<polygon id="XMLID_108_" fill="#CF142B" points="265.2,333.9 253,333.9 227.2,394.5 240.7,394.5 246.2,381 246.2,381 251,369.3 
				250.9,369.3 258.9,349.8 266.9,369.3 266.9,369.3 271.6,381 271.6,381 277.1,394.5 291,394.5 			"/>
		</g>
	</g>
	<g>
		<path fill="#CF142B" d="M54.8,439.4l-0.1-6.6h0.1c1.4,0,2.7-0.1,4.1-0.2l0.6,6.6C57.9,439.4,56.3,439.4,54.8,439.4z"/>
		<path fill="#CF142B" d="M50,439.2c-1.6-0.1-3.1-0.3-4.7-0.6l1.2-6.5c1.4,0.2,2.7,0.4,4.1,0.5L50,439.2z"/>
		<path fill="#CF142B" d="M64.1,438.6l-1.1-6.5c1.4-0.2,2.7-0.5,4-0.9l1.7,6.4C67.2,438,65.6,438.4,64.1,438.6z"/>
		<path fill="#CF142B" d="M40.7,437.6c-1.5-0.4-3-0.9-4.5-1.4l2.3-6.2c1.3,0.5,2.6,0.9,3.9,1.2L40.7,437.6z"/>
		<path fill="#CF142B" d="M73.2,436.2l-2.3-6.2c1.3-0.5,2.6-1,3.8-1.6l2.8,6C76.2,435.1,74.7,435.7,73.2,436.2z"/>
		<path fill="#CF142B" d="M31.8,434.4c-1.4-0.7-2.8-1.4-4.2-2.2l3.3-5.7c1.2,0.7,2.4,1.3,3.7,1.9L31.8,434.4z"/>
		<path fill="#CF142B" d="M81.8,432.2l-3.3-5.8c1.2-0.7,2.4-1.4,3.5-2.2l3.8,5.4C84.5,430.6,83.1,431.4,81.8,432.2z"/>
		<path fill="#FFFFFF" d="M23.6,429.6c-1.3-0.9-2.5-1.9-3.7-2.9l4.3-5.1c1.1,0.9,2.2,1.7,3.3,2.5L23.6,429.6z"/>
		<path fill="#CF142B" d="M89.5,426.8l-4.3-5.1c1.1-0.9,2.1-1.8,3.1-2.8l4.7,4.7C91.9,424.7,90.7,425.8,89.5,426.8z"/>
		<path fill="#FFFFFF" d="M16.4,423.6c-1.1-1.1-2.2-2.3-3.2-3.5l5.1-4.3c0.9,1.1,1.8,2.1,2.8,3.1L16.4,423.6z"/>
		<path fill="#CF142B" d="M96.2,420.2l-5.1-4.3c0.9-1.1,1.7-2.2,2.5-3.3l5.4,3.8C98.2,417.7,97.2,419,96.2,420.2z"/>
		<path fill="#FFFFFF" d="M10.4,416.3c-0.9-1.3-1.8-2.6-2.5-4l5.8-3.3c0.7,1.2,1.4,2.4,2.2,3.5L10.4,416.3z"/>
		<path fill="#CF142B" d="M101.6,412.4l-5.7-3.3c0.7-1.2,1.3-2.4,1.9-3.7l6,2.8C103.2,409.7,102.4,411.1,101.6,412.4z"/>
		<path fill="#FFFFFF" d="M5.6,408.1c-0.7-1.4-1.3-2.9-1.8-4.4l6.2-2.3c0.5,1.3,1,2.6,1.6,3.8L5.6,408.1z"/>
		<path fill="#CF142B" d="M105.6,403.9l-6.2-2.3c0.5-1.3,0.9-2.6,1.3-3.9l6.4,1.7C106.7,400.9,106.2,402.4,105.6,403.9z"/>
		<path fill="#FFFFFF" d="M2.4,399.3c-0.4-1.5-0.7-3.1-1-4.6l6.5-1.1c0.2,1.4,0.5,2.7,0.9,4L2.4,399.3z"/>
		<path fill="#CF142B" d="M108.1,394.8l-6.5-1.2c0.2-1.4,0.4-2.7,0.5-4.1l6.6,0.6C108.6,391.7,108.4,393.2,108.1,394.8z"/>
		<path fill="#FFFFFF" d="M0.8,390c-0.1-1.6-0.2-3.1-0.2-4.7v-0.2h6.6H3.9l3.3,0.1v0.1c0,1.4,0.1,2.8,0.2,4.1L0.8,390z"/>
		<path fill="#CF142B" d="M102.3,385.4v-0.1c0-1.3-0.1-2.7-0.2-4l6.6-0.6c0.1,1.5,0.2,3.1,0.2,4.6L102.3,385.4z"/>
		<path fill="#FFFFFF" d="M7.4,380.9l-6.6-0.6c0.1-1.6,0.4-3.1,0.6-4.7l6.5,1.2C7.7,378.2,7.5,379.5,7.4,380.9z"/>
		<path fill="#CF142B" d="M101.6,377.1c-0.2-1.4-0.5-2.7-0.9-4l6.4-1.7c0.4,1.5,0.7,3.1,1,4.6L101.6,377.1z"/>
		<path fill="#FFFFFF" d="M8.9,372.8l-6.4-1.7c0.4-1.5,0.9-3,1.4-4.5l6.2,2.3C9.7,370.1,9.2,371.4,8.9,372.8z"/>
		<path fill="#CF142B" d="M99.5,369.1c-0.5-1.3-1-2.6-1.6-3.8l6-2.8c0.7,1.4,1.3,2.9,1.8,4.4L99.5,369.1z"/>
		<path fill="#FFFFFF" d="M11.7,365l-6-2.8c0.7-1.4,1.4-2.8,2.2-4.2l5.7,3.3C13,362.5,12.3,363.7,11.7,365z"/>
		<path fill="#CF142B" d="M96,361.6c-0.7-1.2-1.4-2.4-2.2-3.5l5.4-3.8c0.9,1.3,1.7,2.6,2.5,4L96,361.6z"/>
		<path fill="#FFFFFF" d="M15.9,357.8l-5.4-3.8c0.9-1.3,1.9-2.5,2.9-3.7l5.1,4.3C17.6,355.6,16.7,356.7,15.9,357.8z"/>
		<path fill="#CF142B" d="M91.3,354.8c-0.9-1.1-1.8-2.1-2.8-3.1l4.7-4.7c1.1,1.1,2.2,2.3,3.2,3.5L91.3,354.8z"/>
		<path fill="#FFFFFF" d="M21.3,351.5l-4.7-4.7c1.1-1.1,2.3-2.2,3.5-3.2l4.3,5.1C23.3,349.6,22.2,350.5,21.3,351.5z"/>
		<path fill="#CF142B" d="M85.4,348.9c-1.1-0.9-2.2-1.7-3.3-2.5l3.8-5.4c1.3,0.9,2.5,1.9,3.7,2.9L85.4,348.9z"/>
		<path fill="#FFFFFF" d="M27.6,346.2l-3.8-5.5c1.3-0.9,2.6-1.7,4-2.5l3.3,5.8C29.9,344.7,28.8,345.4,27.6,346.2z"/>
		<path fill="#CF142B" d="M78.6,344.1c-1.2-0.7-2.4-1.3-3.7-1.9l2.8-6c1.4,0.7,2.8,1.4,4.2,2.2L78.6,344.1z"/>
		<path fill="#FFFFFF" d="M34.8,342.1l-2.8-6c1.4-0.7,2.9-1.3,4.4-1.8l2.3,6.2C37.4,341,36.1,341.5,34.8,342.1z"/>
		<path fill="#FFFFFF" d="M71.1,340.6c-1.3-0.5-2.6-0.9-3.9-1.3l1.7-6.4c1.5,0.4,3,0.9,4.5,1.4L71.1,340.6z"/>
		<path fill="#FFFFFF" d="M42.6,339.3l-1.7-6.4c1.5-0.4,3.1-0.7,4.6-1l1.1,6.5C45.3,338.6,43.9,338.9,42.6,339.3z"/>
		<path fill="#FFFFFF" d="M63.2,338.5c-1.4-0.2-2.7-0.4-4.1-0.5l0.6-6.6c1.6,0.1,3.1,0.4,4.7,0.6L63.2,338.5z"/>
		<path fill="#FFFFFF" d="M50.8,337.9l-0.5-6.6c1.5-0.1,3-0.2,4.5-0.2H55v6.6h-0.2C53.4,337.7,52.1,337.8,50.8,337.9z"/>
	</g>
</g>
</svg>
